<svg width="174" height="33" fill="none" xmlns="http://www.w3.org/2000/svg"><g clip-path="url(#clip0_873_930)" stroke="#000" stroke-width="2" stroke-linecap="round" stroke-linejoin="round"><path d="M4.125 12.375L16.5 2.75l12.375 9.625V27.5a2.75 2.75 0 01-2.75 2.75H6.875a2.75 2.75 0 01-2.75-2.75V12.375z"/><path d="M12.375 30.25V16.5h8.25v13.75"/></g><path d="M70.603 25h-5.544v-1.536h2.088l-1.128-3h-6.672l-1.2 3h2.256V25h-5.496v-1.536h1.464l5.112-12.528h-2.496V9.4h4.44l5.592 14.064h1.584V25zm-5.088-5.904l-2.688-7.152h-.144l-2.808 7.152h5.64zM80.389 21.4c-.144.928-.568 1.8-1.272 2.616-.688.816-1.768 1.224-3.24 1.224-1.472 0-2.648-.472-3.528-1.416-.88-.96-1.32-2.296-1.32-4.008 0-1.472.416-2.792 1.248-3.96.832-1.168 2.08-1.752 3.744-1.752.704 0 1.352.08 1.944.24a4.91 4.91 0 011.704.864l.408 2.568-1.392.168-.408-1.8c-.64-.4-1.4-.6-2.28-.6-1.136 0-1.952.408-2.448 1.224-.496.816-.744 1.8-.744 2.952 0 1.28.28 2.28.84 3 .56.72 1.368 1.08 2.424 1.08 1.6 0 2.56-.904 2.88-2.712l1.44.312zm11.086 0c-.144.928-.568 1.8-1.272 2.616-.688.816-1.768 1.224-3.24 1.224-1.472 0-2.648-.472-3.528-1.416-.88-.96-1.32-2.296-1.32-4.008 0-1.472.416-2.792 1.248-3.96.832-1.168 2.08-1.752 3.744-1.752.704 0 1.352.08 1.944.24a4.91 4.91 0 011.704.864l.408 2.568-1.392.168-.408-1.8c-.64-.4-1.4-.6-2.28-.6-1.136 0-1.952.408-2.448 1.224-.496.816-.744 1.8-.744 2.952 0 1.28.28 2.28.84 3 .56.72 1.368 1.08 2.424 1.08 1.6 0 2.56-.904 2.88-2.712l1.44.312zm13.918 3.6h-3.6v-2.016a4.052 4.052 0 01-1.488 1.632c-.64.416-1.384.624-2.232.624-1.04 0-1.92-.32-2.64-.96-.704-.656-1.056-1.696-1.056-3.12v-5.472h-1.872V14.32h3.552v6.36c0 1.152.24 1.96.72 2.424.48.464 1.096.696 1.848.696.912 0 1.656-.344 2.232-1.032.592-.688.904-1.416.936-2.184v-4.896h-2.232V14.32h3.912v9.312h1.92V25zm10.789-3.072c-.144.912-.6 1.696-1.368 2.352-.768.64-1.808.96-3.12.96-1.504 0-2.72-.472-3.648-1.416-.928-.944-1.392-2.28-1.392-4.008 0-1.664.44-3.032 1.32-4.104.88-1.072 2.072-1.608 3.576-1.608 1.472 0 2.592.464 3.36 1.392.768.928 1.16 2.024 1.176 3.288 0 .416-.048.84-.144 1.272h-7.512c.096 2.496 1.224 3.744 3.384 3.744.848 0 1.512-.2 1.992-.6.48-.4.8-.928.96-1.584l1.416.312zm-1.872-3.12c.08-.8-.112-1.552-.576-2.256-.448-.704-1.192-1.056-2.232-1.056-.992 0-1.72.328-2.184.984-.464.656-.752 1.432-.864 2.328h5.856zm5.226-7.248V9.376h1.824v2.184h-1.824zm3.72 13.44h-5.424v-1.368h1.872v-7.944h-1.92V14.32h3.6v9.312h1.872V25zm6.39 0h-5.424v-1.368h1.872V9.856h-1.896V8.488h3.576v15.144h1.872V25z" fill="#000"/><defs><clipPath id="clip0_873_930"><path fill="#fff" d="M0 0h33v33H0z"/></clipPath></defs></svg>