<svg width="174" height="33" fill="none" xmlns="http://www.w3.org/2000/svg"><g clip-path="url(#clip0_1090_1579)" stroke="#000" stroke-width="2" stroke-linecap="round" stroke-linejoin="round"><path d="M4.125 12.375L16.5 2.75l12.375 9.625V27.5a2.75 2.75 0 01-2.75 2.75H6.875a2.75 2.75 0 01-2.75-2.75V12.375z"/><path d="M12.375 30.25V16.5h8.25v13.75"/></g><path d="M78.686 25h-5.688v-1.536h1.968V17.8h-8.664v5.664h1.968V25h-5.688v-1.536h1.968V10.936h-1.968V9.4h5.688v1.536h-1.968v5.376h8.664v-5.376h-1.968V9.4h5.688v1.536h-1.968v12.528h1.968V25zm11.867-5.352c0 1.616-.48 2.952-1.44 4.008S86.849 25.24 85.2 25.24c-1.616 0-2.888-.512-3.816-1.536-.912-1.024-1.368-2.344-1.368-3.96 0-1.552.448-2.88 1.344-3.984.896-1.12 2.208-1.68 3.936-1.68 1.744 0 3.056.552 3.936 1.656.88 1.088 1.32 2.392 1.32 3.912zm-1.776-.024c0-1.216-.312-2.2-.936-2.952-.608-.768-1.472-1.152-2.592-1.152s-1.984.392-2.592 1.176c-.592.784-.888 1.768-.888 2.952 0 1.168.296 2.152.888 2.952.592.8 1.456 1.2 2.592 1.2 1.136 0 2.008-.392 2.616-1.176.608-.8.912-1.8.912-3zM111.93 25h-5.112v-1.368h1.56v-4.968c0-1.152-.232-1.96-.696-2.424-.448-.48-1.024-.72-1.728-.72-.976 0-1.728.368-2.256 1.104-.528.736-.8 1.44-.816 2.112v4.896h1.848V25h-5.088v-1.368h1.536v-4.968c0-1.168-.224-1.984-.672-2.448-.448-.464-1.016-.696-1.704-.696-.992 0-1.752.36-2.28 1.08-.512.704-.784 1.4-.816 2.088v4.944h1.968V25h-5.52v-1.368h1.872v-7.944H92.13V14.32h3.576v1.992a4.646 4.646 0 011.416-1.584c.592-.416 1.312-.624 2.16-.624.832 0 1.552.208 2.16.624.624.416 1.048 1.064 1.272 1.944a4.518 4.518 0 011.416-1.848c.64-.48 1.424-.72 2.352-.72 1.024 0 1.872.32 2.544.96.688.64 1.032 1.672 1.032 3.096v5.472h1.872V25zm10.662-3.072c-.144.912-.6 1.696-1.368 2.352-.768.64-1.808.96-3.12.96-1.504 0-2.72-.472-3.648-1.416-.928-.944-1.392-2.28-1.392-4.008 0-1.664.44-3.032 1.32-4.104.88-1.072 2.072-1.608 3.576-1.608 1.472 0 2.592.464 3.36 1.392.768.928 1.16 2.024 1.176 3.288 0 .416-.048.84-.144 1.272h-7.512c.096 2.496 1.224 3.744 3.384 3.744.848 0 1.512-.2 1.992-.6.48-.4.8-.928.96-1.584l1.416.312zm-1.872-3.12c.08-.8-.112-1.552-.576-2.256-.448-.704-1.192-1.056-2.232-1.056-.992 0-1.72.328-2.184.984-.464.656-.752 1.432-.864 2.328h5.856z" fill="#000"/><defs><clipPath id="clip0_1090_1579"><path fill="#fff" d="M0 0h33v33H0z"/></clipPath></defs></svg>